<svg xmlns="http://www.w3.org/2000/svg" xmlns:xlink="http://www.w3.org/1999/xlink" width="466" height="454" fill="none" xmlns:v="https://vecta.io/nano"><style><![CDATA[.B{fill:#263238}.C{stroke-miterlimit:10}.D{fill:#fff}.E{stroke:#263238}.F{stroke-width:.966}.G{fill:#4ca1e2}.H{stroke-linejoin:round}]]></style><g clip-path="url(#A)"><use xlink:href="#B" class="G"/><use xlink:href="#B" opacity=".7" class="D"/><path d="M55.245 388.407c16.39 0 29.677-3.703 29.677-8.271s-13.287-8.271-29.677-8.271-29.677 3.703-29.677 8.271 13.287 8.271 29.677 8.271z" class="B"/><g class="C D E F H"><use xlink:href="#C"/><use xlink:href="#C"/></g><g class="B C E F H"><path d="M30.211 364.835l-.232-2.569 26.737 4.865-22.507 7.334c-2.205-2.659-3.666-5.963-3.998-9.63zm49.374.018L53.08 353.5l29.073-17.156-2.568 28.509zm-19.234-29.527L28.71 348.12l-2.447-27.069 34.088 14.275z"/></g><path d="M26.525 316.256c0 2.156 12.678 3.909 28.318 3.909s28.317-1.753 28.317-3.909-12.678-3.908-28.317-3.908c-15.649 0-28.317 1.742-28.317 3.908z" class="C D E F H"/><g class="B"><path d="M54.832 320.166c-11.007 0-20.543-.867-25.226-2.136 2.759-1.763 14.098-3.083 27.663-3.083 11.007 0 20.543.867 25.226 2.136-2.759 1.763-14.088 3.083-27.663 3.083z" class="C E F H"/><path d="M84.62 263.418c-.272-.463-.866-.624-1.329-.352L63.563 274.49l10.221-20.249c.242-.484.05-1.068-.433-1.31s-1.067-.05-1.309.433l-9.154 18.144c.514-16.411-1.44-35.693-2.467-45.908l-.604-6.82a.98.98 0 0 0-.977-.977.98.98 0 0 0-.977.977c0 .937.242 3.355.614 7.012 1.108 10.92 3.263 32.307 2.316 49.181L42.96 253.787c-.352-.413-.957-.463-1.369-.12s-.463.957-.121 1.37l18.993 22.566c.01.01.03.02.04.03.01.02.02.04.04.05.02.02.05.03.071.041-.393 4.936-1.088 9.379-2.195 12.925l-14.128-13.681a.98.98 0 0 0-1.38.02c-.373.383-.363 1.008.02 1.38l14.783 14.316c-1.027 2.83-1.803 5.55-2.356 8.109l-.061.031-17.361-9.269a.98.98 0 0 0-1.319.403.98.98 0 0 0 .403 1.32l17.804 9.5c.04.02.081.03.121.05-.997 5.39-1.108 10.014-.926 13.429.03.524.453.927.967.927h.05c.534-.03.947-.484.926-1.018-.181-3.515-.04-8.371 1.108-14.033l15.266-7.636c.483-.242.675-.826.433-1.31s-.826-.675-1.309-.433l-13.857 6.931a63.64 63.64 0 0 1 2.135-6.901c1.511-4.029 2.387-9.419 2.84-15.453l21.671-12.553c.483-.292.644-.886.373-1.36z"/></g><g class="G"><path d="M60.653 247.672s10.906-9.541 12.266-18.406-3.404-15-2.044-19.09 5.448-10.91 2.044-16.36-20.443-18.406-20.443-18.406-.685 6.82-4.089 12.27-1.359 12.271 0 17.046-7.492 10.225-2.729 17.045 4.773 7.495 4.773 12.955c0 5.44 2.729 11.576 10.221 12.946zm-11.581 14.315s2.044-5.45-1.36-10.225-6.817-2.045-8.177-7.495-3.404-8.865-6.817-11.595c-3.404-2.73-3.404-2.045-6.133-4.091s-3.404-4.775-6.133-6.82-8.862-2.73-8.862-2.73 2.044 5.45 2.044 8.865c0 3.406-2.729 8.866 1.36 12.956s7.492 2.73 10.221 7.495c2.729 4.775 6.818 12.955 23.856 13.64zm1.36 21.136s.685-8.865-7.492-12.271-9.536-12.955-18.398-15-15.679 0-16.354 5.45c-.685 5.45-.685 12.271-.685 12.271s4.089-6.821 8.177-6.136 6.817 0 11.591 7.496c4.763 7.505 16.344 12.28 23.162 8.19zm-3.404 15c-2.044-.685-6.133-13.64-18.398-15-12.276-1.37-28.63 4.09-28.63 4.09s7.492 4.09 18.398 9.54c10.906 5.46 28.63 1.37 28.63 1.37zm14.995-.686s5.448-12.955 14.31-15.685 11.591 1.36 16.354 4.775l8.177 5.45s-5.448-2.045-10.906 3.405c-5.448 5.45-12.95 6.82-19.768 6.135-6.808-.675-8.167-4.08-8.167-4.08zm12.94-28.629s0-3.405 4.088-10.91c4.088-7.496 4.773-15.001 12.95-16.361s8.862-2.045 13.635-5.45 16.354 2.73 19.083 5.45c2.729 2.73 4.088 4.775 4.088 4.775s-8.861-.685-12.265 3.405-10.906 7.495-14.31 8.866c-3.404 1.36-6.818-1.36-10.221 4.09-3.414 5.45-6.143 7.495-17.049 6.135z"/><path d="M69.515 259.258s-6.133-10.225-3.404-15.685c2.729-5.451 8.177-7.496 7.492-10.911-.685-3.405-3.404-7.495 0-12.27s6.133-2.73 10.221-5.45c4.088-2.73 10.221-8.18 10.221-8.18s1.359 14.315 0 21.135-5.448 7.495-5.448 12.956c0 5.45-2.729 8.865-6.133 12.955s-12.95 5.45-12.95 5.45z"/></g><g class="C E F"><path d="M20.02 230.183l-3.253-3.566m32.305 35.37l-24.38-26.686"/><g stroke-linecap="round" class="H"><path d="M57.189 188.637c-.342-1.511-.725-2.871-1.138-4.039m4.602 63.074s.554-32.146-2.236-52.123"/></g><path d="M88.81 219.796l2.125-4.362m-21.42 43.823l16.233-33.204m26.505 16.651c.856-.12 1.651-.171 2.397-.171h4.743m-44.43 26.275c1.067.161 7.16-7.969 17.663-16.099 5.005-3.878 9.174-6.367 12.668-7.918M9.728 265.16c-1.43 2.237-1.43 4.141-1.43 4.141m42.134 13.821s-5.891-.937-16.394-11.776c-9.758-10.074-17.764-11.374-21.56-9.057m75.455 25.699c1.631.272 3.092.675 4.35.967m-30.26 8.483s2.165 1.007 10.634-5.43c3.575-2.72 6.848-3.869 9.768-4.211m-72.435-.021c-2.93-.01-4.743.161-4.743.161m41.781 10.185s-1.128-1.37-14.34-6.447c-6.294-2.418-12.819-3.385-17.925-3.728"/></g><g stroke="#b2b2b2" stroke-width=".974" class="C"><path d="M464.298 285.005h-11.742v-3.203c0-.192-.161-.353-.352-.353h-12.82c-.191 0-.352.161-.352.353v3.203h-3.686c-.403 0-.725.323-.725.726v18.042h30.412v-18.042c-.01-.403-.332-.726-.735-.726zm0 27.805h-11.742v-3.204c0-.191-.161-.352-.352-.352h-12.82c-.191 0-.352.161-.352.352v3.204h-3.686a.72.72 0 0 0-.725.725v18.043h30.412v-18.043c-.01-.403-.332-.725-.735-.725zm0 27.795h-11.742v-3.204c0-.191-.161-.352-.352-.352h-12.82c-.191 0-.352.161-.352.352v3.204h-3.686a.72.72 0 0 0-.725.725v18.043h30.412V341.33c-.01-.393-.332-.725-.735-.725zM408.449 46.431l-4.22-.292a26.86 26.86 0 0 0-.402-4.251l4.088-1.098a1.21 1.21 0 0 0 .856-1.481l-.513-1.904a1.21 1.21 0 0 0-1.481-.856l-4.078 1.098c-.484-1.35-1.088-2.649-1.783-3.889l3.505-2.367a1.2 1.2 0 0 0 .322-1.672l-1.108-1.632a1.2 1.2 0 0 0-1.671-.322l-3.505 2.367a26.75 26.75 0 0 0-2.94-3.103l2.547-3.385a1.21 1.21 0 0 0-.241-1.692l-1.571-1.189c-.534-.403-1.289-.292-1.692.242l-2.548 3.385c-1.198-.756-2.467-1.431-3.786-1.985l1.309-4.02c.201-.635-.141-1.31-.776-1.521l-1.873-.614a1.21 1.21 0 0 0-1.52.776l-1.309 4.02a27.22 27.22 0 0 0-3.777-.594v-4.231a1.21 1.21 0 0 0-1.208-1.209H377.1c-.664 0-1.208.544-1.208 1.209v4.231a26.55 26.55 0 0 0-4.22.695l-1.379-3.999a1.2 1.2 0 0 0-1.531-.745l-1.863.645a1.2 1.2 0 0 0-.745 1.531l1.379 3.999c-1.309.584-2.568 1.259-3.756 2.045l-2.608-3.335c-.413-.524-1.168-.615-1.692-.212l-1.551 1.219c-.523.413-.614 1.169-.211 1.693l2.608 3.334a26.01 26.01 0 0 0-2.89 3.153l-3.555-2.307c-.554-.363-1.309-.201-1.672.353l-1.077 1.652c-.363.554-.201 1.31.352 1.672l3.545 2.307a25.64 25.64 0 0 0-1.702 3.919l-4.098-1.028c-.645-.161-1.299.232-1.46.876l-.474 1.914c-.161.645.232 1.3.876 1.461l4.099 1.028c-.222 1.36-.332 2.75-.332 4.171v.091l-4.21.373c-.664.06-1.158.645-1.097 1.31l.171 1.965c.06.665.644 1.158 1.309 1.098l4.219-.373c.242 1.42.605 2.801 1.068 4.141l-3.867 1.723c-.604.272-.886.987-.614 1.592l.805 1.803a1.21 1.21 0 0 0 1.591.614l3.857-1.723c.695 1.249 1.48 2.438 2.367 3.556l-3.062 2.891a1.21 1.21 0 0 0-.06 1.703l1.349 1.441c.453.484 1.219.514 1.702.061l3.092-2.881c1.057.957 2.195 1.823 3.393 2.599l-1.983 3.737a1.21 1.21 0 0 0 .493 1.632l1.742.927a1.21 1.21 0 0 0 1.632-.494l1.983-3.727a26.27 26.27 0 0 0 4.059 1.35l-.665 4.181c-.101.655.342 1.28.997 1.38l1.944.312c.654.101 1.278-.343 1.379-.997l.665-4.181 1.913.081 2.367-.111.735 4.171c.111.655.745 1.098 1.4.977l1.943-.343c.655-.111 1.098-.745.977-1.4l-.735-4.161a25.18 25.18 0 0 0 4.028-1.43l2.054 3.697a1.21 1.21 0 0 0 1.642.474l1.722-.957a1.21 1.21 0 0 0 .473-1.642l-2.044-3.697a25.85 25.85 0 0 0 3.343-2.67l3.142 2.831a1.21 1.21 0 0 0 1.702-.091l1.319-1.471a1.21 1.21 0 0 0-.091-1.703l-3.141-2.831a25.86 25.86 0 0 0 2.296-3.606l3.887 1.652a1.21 1.21 0 0 0 1.581-.635l.775-1.813a1.21 1.21 0 0 0-.634-1.582l-3.887-1.652a24.87 24.87 0 0 0 .997-4.161l4.209.292c.665.05 1.239-.453 1.289-1.118l.141-1.964c.02-.675-.484-1.259-1.148-1.3zM378.097 61.18a14.67 14.67 0 0 1-14.662-14.668 14.67 14.67 0 0 1 14.662-14.668 14.67 14.67 0 0 1 14.662 14.668c0 8.1-6.555 14.668-14.662 14.668zm68.266 6.538l-2.769-.191a17.02 17.02 0 0 0-.262-2.79l2.678-.715c.423-.111.675-.544.554-.967l-.332-1.249c-.111-.423-.544-.675-.967-.554l-2.678.715a17.68 17.68 0 0 0-1.169-2.549l2.296-1.551c.363-.242.454-.736.212-1.098l-.725-1.068c-.242-.363-.735-.453-1.098-.212l-2.296 1.551a17.46 17.46 0 0 0-1.923-2.035l1.671-2.216c.262-.353.192-.846-.151-1.108l-1.027-.776c-.352-.262-.846-.191-1.107.151l-1.672 2.216c-.786-.494-1.611-.937-2.477-1.3l.856-2.629a.8.8 0 0 0-.504-.997l-1.228-.403a.8.8 0 0 0-.997.504l-.856 2.639c-.806-.191-1.632-.322-2.468-.393v-2.78c0-.433-.352-.786-.785-.786h-1.289c-.433 0-.786.352-.786.786v2.78a17.53 17.53 0 0 0-2.759.453l-.906-2.619c-.141-.413-.594-.635-1.007-.494l-1.219.423c-.412.141-.634.594-.493 1.007l.906 2.619c-.856.383-1.681.826-2.457 1.34l-1.712-2.186c-.272-.343-.765-.403-1.108-.141l-1.017.796a.8.8 0 0 0-.141 1.108l1.712 2.186a17.57 17.57 0 0 0-1.893 2.065l-2.326-1.511c-.363-.242-.856-.131-1.088.232l-.705 1.088c-.241.363-.13.856.232 1.088l2.326 1.511c-.443.816-.815 1.682-1.118 2.569l-2.688-.675a.79.79 0 0 0-.957.574l-.312 1.259a.79.79 0 0 0 .574.957l2.689.675a17.44 17.44 0 0 0-.222 2.74v.06l-2.759.242a.79.79 0 0 0-.715.856l.111 1.29a.79.79 0 0 0 .856.715l2.759-.242a16.96 16.96 0 0 0 .695 2.71l-2.528 1.128c-.403.181-.574.645-.403 1.048l.524 1.179c.181.403.644.574 1.047.403l2.528-1.128a17.4 17.4 0 0 0 1.551 2.337l-2.035 1.894c-.322.302-.332.796-.04 1.118l.886.947c.302.322.796.333 1.118.04l2.024-1.894a17.33 17.33 0 0 0 2.226 1.703l-1.299 2.448c-.202.383-.061.866.322 1.068l1.138.604a.79.79 0 0 0 1.067-.322l1.299-2.448c.856.363 1.743.665 2.659.886l-.433 2.74a.79.79 0 0 0 .654.907l1.279.201a.79.79 0 0 0 .907-.655l.433-2.74 1.248.05 1.551-.07.484 2.73c.08.433.483.715.916.645l1.269-.222c.433-.081.715-.484.644-.917l-.483-2.73a16.72 16.72 0 0 0 2.638-.937l1.34 2.428c.211.383.695.524 1.077.312l1.128-.625c.383-.212.524-.695.312-1.078l-1.339-2.428a17.49 17.49 0 0 0 2.185-1.743l2.065 1.854c.322.292.825.262 1.117-.06l.866-.957c.292-.322.262-.826-.06-1.118l-2.064-1.854c.563-.745 1.067-1.531 1.51-2.357l2.548 1.088a.79.79 0 0 0 1.037-.423l.504-1.189c.171-.403-.021-.866-.423-1.038l-2.548-1.088c.292-.876.513-1.793.654-2.72l2.76.191a.8.8 0 0 0 .846-.735l.09-1.289c.01-.453-.312-.826-.755-.856zm-19.889 9.661a9.621 9.621 0 1 1 0-19.241 9.621 9.621 0 1 1 0 19.241z"/><use xlink:href="#D"/><path d="M150.067 39.077c1.696 0 3.071-1.376 3.071-3.073s-1.375-3.073-3.071-3.073-3.072 1.376-3.072 3.073 1.375 3.073 3.072 3.073zm10.221-10.506H78.86c-1.662 0-3.011-1.35-3.011-3.012s1.349-3.012 3.011-3.012h81.428c1.662 0 3.011 1.35 3.011 3.012.01 1.662-1.349 3.012-3.011 3.012z"/><path d="M111.951 28.62c1.696 0 3.071-1.376 3.071-3.073s-1.375-3.073-3.071-3.073-3.072 1.376-3.072 3.073 1.376 3.073 3.072 3.073z"/></g><path d="M252.018 398.471c92.284 0 167.095-5.958 167.095-13.308s-74.811-13.308-167.095-13.308-167.096 5.959-167.096 13.308 74.812 13.308 167.096 13.308z" class="B"/><path d="M423.665 73.914H84.127v195.911h339.538V73.914z" class="C E F G"/><path d="M204.899 195.045H95.436v46.28h109.464v-46.28z" class="D"/><path d="M204.899 192.436H95.436v7.817h109.464v-7.817z" class="B"/><g class="G"><path d="M100.229 196.405c0 .675-.544 1.219-1.219 1.219s-1.218-.544-1.218-1.219.544-1.219 1.218-1.219a1.22 1.22 0 0 1 1.219 1.219zm4.27 1.219a1.22 1.22 0 0 0 1.218-1.219 1.22 1.22 0 0 0-1.218-1.219 1.22 1.22 0 0 0-1.219 1.219 1.22 1.22 0 0 0 1.219 1.219zm5.498 0a1.22 1.22 0 0 0 1.219-1.219 1.22 1.22 0 0 0-1.219-1.219 1.22 1.22 0 0 0-1.218 1.219 1.22 1.22 0 0 0 1.218 1.219zm21.923 8.382h-23.453v9.782h23.453v-9.782z"/></g><path d="M139.1 212.846H101.307V232.4H139.1V212.846Z" fill="#525252"/><path d="M131.92 212.846h-23.453v6.518h23.453v-6.518z" fill="#757575"/><path d="M131.92 222.629h-23.453v9.782h23.453v-9.782z" class="B"/><path d="M131.92 228.168h-23.453v9.782h23.453v-9.782z" class="G"/><path d="M170.368 221.973H146.26v8.472h24.108v-8.472z" fill="#ccc"/><path d="M198.394 221.973h-24.108v8.472h24.108v-8.472z" class="G"/><path d="M146.917 215.777v-5.688h2.104c.723 0 1.274.135 1.655.405s.576.654.576 1.162c0 .257-.073.493-.219.708s-.363.375-.659.489c.312.074.559.229.742.463s.273.508.273.83c0 .531-.184.936-.552 1.216s-.911.415-1.63.415h-2.29zm1.186-2.475v1.528h1.113c.332 0 .58-.068.742-.205s.245-.316.245-.527c0-.515-.293-.78-.879-.796h-1.221zm0-.83h1.035c.296-.007.524-.069.684-.186a.59.59 0 0 0 .244-.513c0-.257-.085-.442-.254-.556s-.413-.171-.742-.171h-.967v1.426zm8.901 1.435c0 .57-.208 1.024-.625 1.363s-.962.507-1.645.507h-2.349v-5.688h1.187v1.973h1.181c.456 0 .855.078 1.197.234s.602.369.781.649.273.598.273.962zm-2.255.918c.332 0 .592-.086.781-.259s.288-.398.288-.669c0-.257-.093-.465-.278-.625s-.433-.247-.752-.253h-1.216v1.806h1.177zm4.135.952h-1.181v-5.688h1.181v5.688zm5.069-4.731h-2.725v4.731h-1.186v-5.688h3.911v.957zm1.933 2.734v1.997H164.7v-5.688h2.368c.69 0 1.24.174 1.65.522s.62.799.62 1.363c0 .55-.197.986-.59 1.308s-.931.489-1.622.498h-1.24zm0-.957h1.182c.338 0 .604-.071.796-.215s.293-.351.293-.625c0-.283-.1-.509-.298-.678s-.457-.259-.786-.259h-1.187v1.777zm6.475.088l.093.269 1.186-3.091h1.299l-1.953 4.385c-.182.41-.347.701-.493.874s-.323.299-.528.39-.454.137-.747.137l-.498-.024.005-.938.425.02c.312 0 .552-.158.718-.474l-2.056-4.37h1.318l1.231 2.822zm6.245-1.211a.61.61 0 0 0-.273-.532c-.183-.13-.448-.195-.796-.195-.297 0-.528.057-.694.171a.53.53 0 0 0-.249.463h-1.186c0-.481.197-.867.591-1.157s.913-.439 1.547-.439c.704 0 1.254.136 1.651.41s.595.649.595 1.138c0 .296-.089.556-.268.781s-.42.4-.723.527c.362.117.632.295.811.532a1.28 1.28 0 0 1 .268.796 1.41 1.41 0 0 1-.63 1.221c-.419.293-.987.439-1.704.439-.302 0-.597-.035-.883-.107s-.528-.189-.733-.342a1.43 1.43 0 0 1-.605-1.22h1.186c.036.478.383.717 1.04.717.388 0 .676-.07.865-.21s.283-.332.283-.566c0-.54-.365-.815-1.094-.825h-.723v-.86h.752c.648-.013.972-.26.972-.742zm4.019 1.787h-.518v2.29h-1.187v-5.688h1.187v2.344h.483l1.524-2.344h1.391l-1.943 2.788 2.095 2.9h-1.48l-1.552-2.29zm7.226 1.075h-2.353l-.464 1.215h-1.197l2.3-5.688h1.089l2.29 5.688h-1.201l-.464-1.215zm-2.007-.904h1.66l-.83-2.158-.83 2.158z" fill="#53aaed"/><path d="M371.41 85.217H230.326v87.685H371.41V85.217z" class="B"/><path d="M371.41 85.217H230.326v81.409H371.41V85.217z" class="D"/><path d="M263.306 85.217h-32.98v81.409h32.98V85.217z" fill="#ccc"/><path d="M371.41 83.404H230.326v22.838H371.41V83.404z" class="B"/><g class="G"><path d="M237.405 87.725a1.36 1.36 0 1 1-1.359-1.36 1.36 1.36 0 0 1 1.359 1.36zm4.744 1.36a1.36 1.36 0 0 0 0-2.72 1.36 1.36 0 0 0 0 2.72zm7.472-1.36a1.36 1.36 0 1 1-1.36-1.36 1.36 1.36 0 0 1 1.36 1.36z"/></g><g class="C E F"><path d="M363.344 98.516h-29.617c-2.165 0-3.927-1.763-3.927-3.929s1.762-3.929 3.927-3.929h29.617c2.165 0 3.927 1.763 3.927 3.929a3.92 3.92 0 0 1-3.927 3.929z" class="D"/><g fill="#696969"><path d="M321.935 91.262h-8.459v6.044h8.459v-6.044zm-16.837 0h-8.459v6.044h8.459v-6.044zm-62.949 0h-8.46v6.044h8.46v-6.044zm9.063 0h-8.459v6.044h8.459v-6.044z"/></g></g><g fill="#ccc"><use xlink:href="#E"/><path d="M276.518 116.458h-5.559c-.211 0-.382-.171-.382-.383v-2.528c0-.212.171-.383.382-.383h5.559c.212 0 .383.171.383.383v2.528c-.01.212-.181.383-.383.383z"/><use xlink:href="#F"/><path d="M306.89 116.458h-5.559c-.211 0-.382-.171-.382-.383v-2.528c0-.212.171-.383.382-.383h5.559c.212 0 .383.171.383.383v2.528c-.01.212-.171.383-.383.383zm36.575 7.133h-14.189v-7.989a.77.77 0 0 1 .776-.776H342.7c.423 0 .775.343.775.776v7.989h-.01z"/><path d="M337.262 116.458h-5.559c-.211 0-.382-.171-.382-.383v-2.528c0-.212.171-.383.382-.383h5.559c.212 0 .383.171.383.383v2.528c0 .212-.171.383-.383.383zm-54.551 27.078h-14.189v-7.989a.77.77 0 0 1 .776-.776h12.648c.423 0 .776.343.776.776v7.989h-.011z"/><path d="M276.518 136.404h-5.559c-.211 0-.382-.172-.382-.383v-2.529c0-.211.171-.383.382-.383h5.559c.212 0 .383.172.383.383v2.529c-.01.221-.181.383-.383.383zm36.566 7.132h-14.189v-7.989a.77.77 0 0 1 .775-.776h12.648a.77.77 0 0 1 .776.776v7.989h-.01z"/><path d="M306.89 136.404h-5.559c-.211 0-.382-.172-.382-.383v-2.529c0-.211.171-.383.382-.383h5.559c.212 0 .383.172.383.383v2.529c-.01.221-.171.383-.383.383z"/></g><path d="M362.669 170.02h-24.934c-.373 0-.685-.302-.685-.685 0-.372.302-.685.685-.685h24.934c.373 0 .685.303.685.685-.01.383-.312.685-.685.685z" fill="#c4c4c4"/><g class="B"><path d="M343.223 169.326a.9.9 0 0 1-.896.897.9.9 0 0 1-.896-.897.9.9 0 0 1 .896-.896.9.9 0 0 1 .896.896zm63.484 25.215H267.606v67.114h139.101v-67.114z"/></g><path d="M406.707 194.541H267.606v60.928h139.101v-60.928z" class="D"/><path d="M407.1 193H268v22.516h139.1V193z" class="B"/><g class="G"><use xlink:href="#G"/><path d="M280.607 197.02a1.34 1.34 0 0 1-1.339 1.339c-.736 0-1.34-.604-1.34-1.339s.604-1.34 1.34-1.34a1.34 1.34 0 0 1 1.339 1.34zm6.022 0c0 .735-.604 1.339-1.339 1.339s-1.34-.604-1.34-1.339.604-1.34 1.34-1.34a1.34 1.34 0 0 1 1.339 1.34z"/></g><g class="C E F"><path d="M399.023 207.657h-29.737c-1.994 0-3.605-1.612-3.605-3.606v-.534c0-1.995 1.611-3.607 3.605-3.607h29.737c1.994 0 3.605 1.612 3.605 3.607v.534c0 1.994-1.611 3.606-3.605 3.606z" class="D"/><g fill="#696969"><path d="M279.268 200.506h-8.349v5.964h8.349v-5.964zm8.942 0h-8.348v5.964h8.348v-5.964zm17.16 0h-15.669v5.964h15.669v-5.964z"/></g></g><path d="M304.363 249.919h-12.085l2.468-3.626v-3.305h7.149v3.425l2.468 3.506z" fill="#969696"/><path d="M315.853 217.369h-35.075v28.188h35.075v-28.188z" fill="#ccc"/><path d="M315.853 217.369h-35.075v23.171h35.075v-23.171z" class="B"/><path d="M313.768 219.867h-30.895v18.164h30.895v-18.164z" class="G"/><path d="M396.103 230.485h-65.447a1.25 1.25 0 0 1-1.248-1.249v-.192a1.25 1.25 0 0 1 1.248-1.249h65.447a1.25 1.25 0 0 1 1.249 1.249v.192c0 .685-.564 1.249-1.249 1.249z" fill="#969696"/><path d="M389.305 229.147c0-1.975-1.601-3.577-3.575-3.577s-3.575 1.602-3.575 3.577 1.601 3.576 3.575 3.576 3.575-1.602 3.575-3.576z" fill="#ccc"/><path d="M193.359 82.688H95.436v101.588h97.924V82.688z" class="B"/><path d="M193.359 82.688H95.436v8.13h97.924v-8.13z" class="D"/><g class="G"><path d="M104.449 97.668h-2.86a.705.705 0 1 1 0-1.41h2.86a.705.705 0 1 1 0 1.41zm.705 2.569a.7.7 0 0 0-.705-.706h-2.86a.706.706 0 1 0 0 1.411h2.86a.7.7 0 0 0 .705-.705zm0 3.264a.7.7 0 0 0-.705-.706h-2.86a.706.706 0 1 0 0 1.411h2.86a.7.7 0 0 0 .705-.705zm0 3.274a.7.7 0 0 0-.705-.706h-2.86a.706.706 0 1 0 0 1.411h2.86a.7.7 0 0 0 .705-.705zm0 3.264a.7.7 0 0 0-.705-.706h-2.86a.706.706 0 1 0 0 1.411h2.86a.7.7 0 0 0 .705-.705zm0 3.274a.7.7 0 0 0-.705-.705h-2.86a.705.705 0 1 0 0 1.41h2.86a.7.7 0 0 0 .705-.705zm0 3.274a.7.7 0 0 0-.705-.705h-2.86a.705.705 0 1 0 0 1.41h2.86a.71.71 0 0 0 .705-.705zm0 3.264a.7.7 0 0 0-.705-.705h-2.86a.705.705 0 1 0 0 1.41h2.86a.7.7 0 0 0 .705-.705zm10.704-22.888a.7.7 0 0 0-.705-.705h-7.502a.705.705 0 1 0 0 1.41h7.502c.383 0 .705-.312.705-.705zm0 3.274a.7.7 0 0 0-.705-.706h-7.502a.706.706 0 1 0 0 1.411h7.502a.71.71 0 0 0 .705-.705zm0 3.264a.7.7 0 0 0-.705-.706h-7.502a.706.706 0 1 0 0 1.411h7.502a.71.71 0 0 0 .705-.705zm0 3.274a.7.7 0 0 0-.705-.706h-7.502a.706.706 0 1 0 0 1.411h7.502c.383 0 .705-.312.705-.705zm0 3.264a.7.7 0 0 0-.705-.706h-7.502a.706.706 0 1 0 0 1.411h7.502c.383 0 .705-.312.705-.705zm8.983 3.274a.7.7 0 0 0-.705-.705h-7.502a.705.705 0 1 0 0 1.41h7.502a.7.7 0 0 0 .705-.705zm0 3.274a.7.7 0 0 0-.705-.705h-7.502a.705.705 0 1 0 0 1.41h7.502c.393 0 .705-.322.705-.705zm0 3.264a.7.7 0 0 0-.705-.705h-7.502a.705.705 0 1 0 0 1.41h7.502a.7.7 0 0 0 .705-.705zm-5.68-22.888a.816.816 0 1 0-1.631 0 .81.81 0 0 0 .816.816c.443.01.815-.363.815-.816zm2.447 0a.816.816 0 1 0-1.631 0 .81.81 0 0 0 .816.816c.453.01.815-.363.815-.816zm2.447 0a.81.81 0 0 0-.815-.816c-.453 0-.816.363-.816.816s.363.816.816.816c.453.01.815-.363.815-.816zm2.458 0c0-.453-.363-.816-.816-.816s-.816.363-.816.816.363.816.816.816c.443.01.816-.363.816-.816zm2.447 0c0-.453-.363-.816-.816-.816s-.816.363-.816.816.363.816.816.816c.453.01.816-.363.816-.816zm2.457 0c0-.453-.363-.816-.816-.816s-.816.363-.816.816.363.816.816.816.816-.363.816-.816zm-12.256 6.538a.816.816 0 1 0-1.631 0 .81.81 0 0 0 .816.816c.443.01.815-.363.815-.816zm2.447 0a.816.816 0 1 0-1.631 0 .81.81 0 0 0 .816.816c.453.01.815-.363.815-.816zm2.447 0a.816.816 0 1 0-1.631 0c0 .453.363.816.816.816.453.01.815-.363.815-.816zm2.458 0a.816.816 0 1 0-1.632 0c0 .453.363.816.816.816.443.01.816-.363.816-.816zm2.447 0a.816.816 0 1 0-1.632 0c0 .453.363.816.816.816.453.01.816-.363.816-.816zm2.457 0a.816.816 0 1 0-1.632 0c0 .453.363.816.816.816s.816-.363.816-.816zm-3.887 9.399a.816.816 0 1 0-1.632 0c0 .453.363.816.816.816.453.01.816-.363.816-.816zm2.457 0a.816.816 0 1 0-1.632 0c0 .453.363.816.816.816.443.01.816-.363.816-.816zm2.447 0a.816.816 0 1 0-1.632 0c0 .453.363.816.816.816.453.01.816-.363.816-.816zm2.447 0a.816.816 0 1 0-1.631 0 .81.81 0 0 0 .815.816c.453.01.816-.363.816-.816zm2.457 0a.816.816 0 1 0-1.631 0 .81.81 0 0 0 .815.816c.443.01.816-.363.816-.816zm2.447 0a.816.816 0 1 0-1.631 0 .81.81 0 0 0 .815.816c.454.01.816-.363.816-.816zm-12.255 6.749c0-.453-.363-.816-.816-.816s-.816.363-.816.816a.816.816 0 1 0 1.632 0zm2.457 0c0-.453-.363-.816-.816-.816s-.816.363-.816.816a.81.81 0 0 0 .816.816.82.82 0 0 0 .816-.816zm2.447 0c0-.453-.363-.816-.816-.816s-.816.363-.816.816a.816.816 0 1 0 1.632 0zm2.447 0c0-.453-.363-.816-.816-.816a.816.816 0 1 0 0 1.632.81.81 0 0 0 .816-.816zm2.457 0c0-.453-.363-.816-.816-.816a.816.816 0 1 0 0 1.632.82.82 0 0 0 .816-.816zm2.447 0a.816.816 0 1 0-1.631 0 .816.816 0 1 0 1.631 0zm-35.336 4.181h-2.86a.706.706 0 1 1 0-1.411h2.86a.706.706 0 1 1 0 1.411zm.705 2.569a.7.7 0 0 0-.705-.706h-2.86a.706.706 0 1 0 0 1.411h2.86a.7.7 0 0 0 .705-.705zm0 3.264a.7.7 0 0 0-.705-.705h-2.86a.705.705 0 1 0 0 1.41h2.86a.7.7 0 0 0 .705-.705zm0 3.274a.7.7 0 0 0-.705-.705h-2.86a.705.705 0 1 0 0 1.41h2.86a.7.7 0 0 0 .705-.705zm0 3.264a.7.7 0 0 0-.705-.705h-2.86a.705.705 0 1 0 0 1.41h2.86a.7.7 0 0 0 .705-.705zm0 3.274a.7.7 0 0 0-.705-.705h-2.86a.705.705 0 1 0 0 1.41h2.86a.7.7 0 0 0 .705-.705zm0 3.264a.7.7 0 0 0-.705-.705h-2.86a.705.705 0 1 0 0 1.41h2.86c.392.01.705-.312.705-.705zm0 3.274a.7.7 0 0 0-.705-.705h-2.86a.705.705 0 1 0 0 1.41h2.86a.7.7 0 0 0 .705-.705zm10.704-22.888a.7.7 0 0 0-.705-.706h-7.502a.706.706 0 1 0 0 1.411h7.502a.71.71 0 0 0 .705-.705zm0 3.274a.7.7 0 0 0-.705-.706h-7.502a.706.706 0 1 0 0 1.411h7.502c.383 0 .705-.312.705-.705zm0 3.264a.7.7 0 0 0-.705-.705h-7.502a.705.705 0 1 0 0 1.41h7.502c.383 0 .705-.312.705-.705zm0 3.274a.7.7 0 0 0-.705-.705h-7.502a.705.705 0 1 0 0 1.41h7.502c.383 0 .705-.312.705-.705zm0 3.264a.7.7 0 0 0-.705-.705h-7.502a.705.705 0 1 0 0 1.41h7.502c.383 0 .705-.312.705-.705zm8.983 3.274a.7.7 0 0 0-.705-.705h-7.502a.705.705 0 1 0 0 1.41h7.502a.7.7 0 0 0 .705-.705zm0 3.264a.7.7 0 0 0-.705-.705h-7.502a.705.705 0 1 0 0 1.41h7.502c.393.01.705-.312.705-.705zm0 3.274a.7.7 0 0 0-.705-.705h-7.502a.705.705 0 1 0 0 1.41h7.502a.7.7 0 0 0 .705-.705zm-5.68-22.888a.816.816 0 1 0-1.631 0 .81.81 0 0 0 .816.816.82.82 0 0 0 .815-.816zm2.447 0a.816.816 0 1 0-1.631 0 .816.816 0 1 0 1.631 0zm2.447 0a.816.816 0 1 0-1.631 0c0 .453.363.816.816.816a.81.81 0 0 0 .815-.816zm2.458 0a.816.816 0 1 0-1.632 0c0 .453.363.816.816.816a.82.82 0 0 0 .816-.816zm2.447 0a.816.816 0 1 0-1.632 0c0 .453.363.816.816.816s.816-.363.816-.816zm2.457 0a.816.816 0 1 0-1.632 0c0 .453.363.816.816.816s.816-.363.816-.816zm-12.256 6.538a.816.816 0 1 0-1.631 0 .81.81 0 0 0 .816.816.82.82 0 0 0 .815-.816zm2.447 0a.816.816 0 1 0-1.631 0 .816.816 0 1 0 1.631 0zm2.447 0a.816.816 0 1 0-1.631 0c0 .453.363.816.816.816a.81.81 0 0 0 .815-.816zm2.458 0a.816.816 0 1 0-1.632 0c0 .453.363.816.816.816a.82.82 0 0 0 .816-.816zm2.447 0a.816.816 0 1 0-1.632 0c0 .453.363.816.816.816s.816-.363.816-.816zm2.457 0a.816.816 0 1 0-1.632 0c0 .453.363.816.816.816s.816-.363.816-.816zm-3.887 9.399c0-.453-.363-.816-.816-.816s-.816.363-.816.816.363.816.816.816.816-.363.816-.816zm2.457 0c0-.453-.363-.816-.816-.816s-.816.363-.816.816.363.816.816.816a.82.82 0 0 0 .816-.816zm2.447 0c0-.453-.363-.816-.816-.816s-.816.363-.816.816.363.816.816.816.816-.363.816-.816zm2.447 0c0-.453-.363-.816-.816-.816a.816.816 0 1 0 0 1.632c.453 0 .816-.363.816-.816zm2.457 0c0-.453-.363-.816-.816-.816a.816.816 0 1 0 0 1.632.82.82 0 0 0 .816-.816zm2.447 0a.816.816 0 1 0-1.631 0 .816.816 0 1 0 1.631 0zm-12.255 6.75c0-.454-.363-.817-.816-.817s-.816.363-.816.817a.81.81 0 0 0 .816.816c.453 0 .816-.363.816-.816zm2.457 0c0-.454-.363-.817-.816-.817s-.816.363-.816.817a.81.81 0 0 0 .816.816.82.82 0 0 0 .816-.816zm2.447 0c0-.454-.363-.817-.816-.817s-.816.363-.816.817a.81.81 0 0 0 .816.816c.453 0 .816-.363.816-.816zm2.447 0c0-.454-.363-.817-.816-.817a.817.817 0 1 0 0 1.633c.453 0 .816-.363.816-.816zm2.457 0c0-.454-.363-.817-.816-.817a.817.817 0 1 0 0 1.633.82.82 0 0 0 .816-.816zm2.447 0c0-.454-.362-.817-.816-.817a.817.817 0 1 0 0 1.633.81.81 0 0 0 .816-.816z"/><path d="M104.449 150.627h-2.86a.706.706 0 1 1 0-1.411h2.86a.706.706 0 1 1 0 1.411zm.705 2.558a.7.7 0 0 0-.705-.705h-2.86a.706.706 0 1 0 0 1.411h2.86a.7.7 0 0 0 .705-.706zm0 3.275a.7.7 0 0 0-.705-.706h-2.86a.706.706 0 1 0 0 1.411h2.86a.7.7 0 0 0 .705-.705zm0 3.264a.7.7 0 0 0-.705-.706h-2.86a.706.706 0 1 0 0 1.411h2.86a.7.7 0 0 0 .705-.705zm0 3.274a.7.7 0 0 0-.705-.706h-2.86a.706.706 0 1 0 0 1.411h2.86a.7.7 0 0 0 .705-.705zm0 3.274a.7.7 0 0 0-.705-.705h-2.86a.705.705 0 1 0 0 1.41h2.86a.71.71 0 0 0 .705-.705zm0 3.264a.7.7 0 0 0-.705-.705h-2.86a.705.705 0 1 0 0 1.41h2.86a.7.7 0 0 0 .705-.705zm0 3.274a.7.7 0 0 0-.705-.705h-2.86a.705.705 0 1 0 0 1.41h2.86a.71.71 0 0 0 .705-.705zm10.704-22.889a.7.7 0 0 0-.705-.705h-7.502a.706.706 0 1 0 0 1.411h7.502a.71.71 0 0 0 .705-.706zm0 3.264a.7.7 0 0 0-.705-.705h-7.502a.706.706 0 1 0 0 1.411h7.502a.71.71 0 0 0 .705-.706zm0 3.275a.7.7 0 0 0-.705-.706h-7.502a.706.706 0 1 0 0 1.411h7.502a.71.71 0 0 0 .705-.705zm0 3.264a.7.7 0 0 0-.705-.706h-7.502a.706.706 0 1 0 0 1.411h7.502a.71.71 0 0 0 .705-.705zm0 3.274a.7.7 0 0 0-.705-.706h-7.502a.706.706 0 1 0 0 1.411h7.502c.383 0 .705-.312.705-.705zm8.983 3.274a.7.7 0 0 0-.705-.705h-7.502a.705.705 0 1 0 0 1.41h7.502c.393 0 .705-.322.705-.705zm0 3.264a.7.7 0 0 0-.705-.705h-7.502a.705.705 0 1 0 0 1.41h7.502a.7.7 0 0 0 .705-.705zm0 3.274a.7.7 0 0 0-.705-.705h-7.502a.705.705 0 1 0 0 1.41h7.502c.393 0 .705-.322.705-.705zm-5.68-22.889a.816.816 0 1 0-1.631 0 .81.81 0 0 0 .816.816.82.82 0 0 0 .815-.816zm2.447 0a.816.816 0 1 0-1.631 0 .816.816 0 1 0 1.631 0zm2.447 0a.81.81 0 0 0-.815-.816c-.453 0-.816.363-.816.816a.816.816 0 1 0 1.631 0zm2.458 0c0-.453-.363-.816-.816-.816s-.816.363-.816.816a.81.81 0 0 0 .816.816.82.82 0 0 0 .816-.816zm2.447 0c0-.453-.363-.816-.816-.816s-.816.363-.816.816a.816.816 0 1 0 1.632 0zm2.457 0c0-.453-.363-.816-.816-.816s-.816.363-.816.816a.816.816 0 1 0 1.632 0zm-12.256 6.539a.816.816 0 1 0-1.631 0 .81.81 0 0 0 .816.816.82.82 0 0 0 .815-.816zm2.447 0a.816.816 0 1 0-1.631 0 .816.816 0 1 0 1.631 0zm2.447 0a.816.816 0 1 0-1.631 0c0 .453.363.816.816.816a.81.81 0 0 0 .815-.816zm2.458 0a.816.816 0 1 0-1.632 0c0 .453.363.816.816.816a.82.82 0 0 0 .816-.816zm2.447 0a.816.816 0 1 0-1.632 0c0 .453.363.816.816.816s.816-.363.816-.816zm2.457 0a.816.816 0 1 0-1.632 0c0 .453.363.816.816.816s.816-.363.816-.816zm-3.887 9.399a.816.816 0 1 0-1.632 0c0 .453.363.816.816.816s.816-.363.816-.816zm2.457 0a.816.816 0 1 0-1.632 0c0 .453.363.816.816.816a.82.82 0 0 0 .816-.816zm2.447 0a.816.816 0 1 0-1.632 0c0 .453.363.816.816.816s.816-.363.816-.816zm2.447 0a.816.816 0 1 0-1.631 0 .81.81 0 0 0 .815.816c.453 0 .816-.363.816-.816zm2.457 0a.816.816 0 1 0-1.631 0 .81.81 0 0 0 .815.816.82.82 0 0 0 .816-.816zm2.447 0a.816.816 0 1 0-1.631 0 .816.816 0 1 0 1.631 0zm-12.255 6.739c0-.453-.363-.816-.816-.816s-.816.363-.816.816a.816.816 0 1 0 1.632 0zm2.457 0c0-.453-.363-.816-.816-.816s-.816.363-.816.816a.81.81 0 0 0 .816.816.82.82 0 0 0 .816-.816zm2.447 0c0-.453-.363-.816-.816-.816s-.816.363-.816.816a.816.816 0 1 0 1.632 0zm2.447 0c0-.453-.363-.816-.816-.816a.816.816 0 1 0 0 1.632.81.81 0 0 0 .816-.816zm2.457 0c0-.453-.363-.816-.816-.816a.816.816 0 1 0 0 1.632.82.82 0 0 0 .816-.816zm2.447 0a.816.816 0 1 0-1.631 0 .816.816 0 1 0 1.631 0zm8.57-74.93h-2.86a.705.705 0 1 1 0-1.41h2.86a.705.705 0 1 1 0 1.41zm.705 2.569a.7.7 0 0 0-.705-.706h-2.86a.706.706 0 1 0 0 1.411h2.86a.7.7 0 0 0 .705-.705zm0 3.264a.7.7 0 0 0-.705-.706h-2.86a.706.706 0 1 0 0 1.411h2.86a.7.7 0 0 0 .705-.705zm0 3.274a.7.7 0 0 0-.705-.706h-2.86a.706.706 0 1 0 0 1.411h2.86a.7.7 0 0 0 .705-.705zm0 3.264a.7.7 0 0 0-.705-.706h-2.86a.706.706 0 1 0 0 1.411h2.86a.7.7 0 0 0 .705-.705zm0 3.274a.7.7 0 0 0-.705-.705h-2.86a.705.705 0 1 0 0 1.41h2.86a.7.7 0 0 0 .705-.705zm0 3.274a.7.7 0 0 0-.705-.705h-2.86a.705.705 0 1 0 0 1.41h2.86c.393 0 .705-.322.705-.705zm0 3.264a.7.7 0 0 0-.705-.705h-2.86a.705.705 0 1 0 0 1.41h2.86a.7.7 0 0 0 .705-.705zm10.694-22.888a.7.7 0 0 0-.705-.705h-7.502a.705.705 0 1 0 0 1.41h7.502a.7.7 0 0 0 .705-.705zm0 3.274a.7.7 0 0 0-.705-.706h-7.502a.706.706 0 1 0 0 1.411h7.502a.7.7 0 0 0 .705-.705zm0 3.264a.7.7 0 0 0-.705-.706h-7.502a.706.706 0 1 0 0 1.411h7.502a.7.7 0 0 0 .705-.705zm0 3.274a.7.7 0 0 0-.705-.706h-7.502a.706.706 0 1 0 0 1.411h7.502a.7.7 0 0 0 .705-.705zm0 3.264a.7.7 0 0 0-.705-.706h-7.502a.706.706 0 1 0 0 1.411h7.502a.7.7 0 0 0 .705-.705zm8.993 3.274a.7.7 0 0 0-.705-.705h-7.502a.705.705 0 1 0 0 1.41h7.502c.383 0 .705-.312.705-.705zm0 3.274a.7.7 0 0 0-.705-.705h-7.502a.705.705 0 1 0 0 1.41h7.502c.383 0 .705-.322.705-.705zm0 3.264a.7.7 0 0 0-.705-.705h-7.502a.705.705 0 1 0 0 1.41h7.502c.383 0 .705-.312.705-.705zm-5.69-22.888a.81.81 0 0 0-.815-.816c-.453 0-.816.363-.816.816s.363.816.816.816c.453.01.815-.363.815-.816zm2.458 0c0-.453-.363-.816-.816-.816s-.816.363-.816.816.363.816.816.816c.443.01.816-.363.816-.816zm2.447 0c0-.453-.363-.816-.816-.816s-.816.363-.816.816.363.816.816.816c.453.01.816-.363.816-.816zm2.447 0c0-.453-.363-.816-.816-.816s-.816.363-.816.816.363.816.816.816c.453.01.816-.363.816-.816zm2.457 0c0-.453-.363-.816-.816-.816s-.816.363-.816.816.363.816.816.816c.453.01.816-.363.816-.816zm2.447 0c0-.453-.363-.816-.816-.816a.816.816 0 1 0 0 1.632c.453.01.816-.363.816-.816zm-12.256 6.538a.816.816 0 1 0-1.631 0c0 .453.363.816.816.816.453.01.815-.363.815-.816zm2.458 0a.816.816 0 1 0-1.632 0c0 .453.363.816.816.816.443.01.816-.363.816-.816zm2.447 0a.816.816 0 1 0-1.632 0c0 .453.363.816.816.816.453.01.816-.363.816-.816zm2.447 0a.816.816 0 1 0-1.632 0c0 .453.363.816.816.816.453.01.816-.363.816-.816zm2.457 0a.816.816 0 1 0-1.632 0c0 .453.363.816.816.816.453.01.816-.363.816-.816zm2.447 0a.816.816 0 1 0-1.631 0 .81.81 0 0 0 .815.816c.453.01.816-.363.816-.816zm-3.877 9.399a.816.816 0 1 0-1.632 0c0 .453.363.816.816.816.453.01.816-.363.816-.816zm2.447 0a.816.816 0 1 0-1.631 0 .81.81 0 0 0 .815.816c.453.01.816-.363.816-.816zm2.457 0a.816.816 0 1 0-1.631 0 .81.81 0 0 0 .815.816c.443.01.816-.363.816-.816zm2.447 0a.816.816 0 1 0-1.631 0 .81.81 0 0 0 .815.816c.454.01.816-.363.816-.816zm2.457 0a.816.816 0 1 0-1.631 0 .81.81 0 0 0 .816.816c.443.01.815-.363.815-.816zm2.447 0a.816.816 0 1 0-1.631 0c0 .453.363.816.816.816.453.01.815-.363.815-.816zm-12.255 6.749c0-.453-.363-.816-.816-.816s-.816.363-.816.816a.816.816 0 1 0 1.632 0zm2.447 0c0-.453-.363-.816-.816-.816a.816.816 0 1 0 0 1.632.81.81 0 0 0 .816-.816zm2.457 0a.816.816 0 1 0-1.631 0 .81.81 0 0 0 .815.816.82.82 0 0 0 .816-.816zm2.447 0a.816.816 0 1 0-1.631 0 .816.816 0 1 0 1.631 0zm2.457 0a.816.816 0 1 0-1.631 0 .81.81 0 0 0 .816.816.82.82 0 0 0 .815-.816zm2.447 0a.81.81 0 0 0-.815-.816c-.453 0-.816.363-.816.816a.816.816 0 1 0 1.631 0z"/><path d="M148.355 124.465h-2.86a.7.7 0 1 1 0-1.411h2.86a.7.7 0 1 1 0 1.411zm.705 2.568a.7.7 0 0 0-.705-.705h-2.86a.7.7 0 1 0 0 1.411h2.86a.71.71 0 0 0 .705-.706zm0 3.264a.7.7 0 0 0-.705-.705h-2.86a.7.7 0 1 0 0 1.411h2.86a.7.7 0 0 0 .705-.706zm0 3.275a.7.7 0 0 0-.705-.706h-2.86a.7.7 0 1 0 0 1.411h2.86a.71.71 0 0 0 .705-.705zm0 3.264a.7.7 0 0 0-.705-.706h-2.86a.7.7 0 1 0 0 1.411h2.86a.7.7 0 0 0 .705-.705zm0 3.274a.7.7 0 0 0-.705-.706h-2.86a.7.7 0 1 0 0 1.411h2.86a.71.71 0 0 0 .705-.705zm0 3.264a.7.7 0 0 0-.705-.706h-2.86a.7.7 0 1 0 0 1.411h2.86a.7.7 0 0 0 .705-.705zm0 3.274a.7.7 0 0 0-.705-.705h-2.86a.7.7 0 1 0 0 1.41h2.86c.393 0 .705-.322.705-.705zm10.694-22.889a.7.7 0 0 0-.705-.705h-7.502a.7.7 0 1 0 0 1.411h7.502a.7.7 0 0 0 .705-.706zm0 3.274a.7.7 0 0 0-.705-.705h-7.502a.7.7 0 1 0 0 1.411h7.502a.71.71 0 0 0 .705-.706zm0 3.264a.7.7 0 0 0-.705-.705h-7.502a.7.7 0 1 0 0 1.411h7.502a.7.7 0 0 0 .705-.706zm0 3.275a.7.7 0 0 0-.705-.706h-7.502a.7.7 0 1 0 0 1.411h7.502a.71.71 0 0 0 .705-.705zm0 3.264a.7.7 0 0 0-.705-.706h-7.502a.7.7 0 1 0 0 1.411h7.502a.7.7 0 0 0 .705-.705zm8.993 3.274a.7.7 0 0 0-.705-.706h-7.502a.7.7 0 1 0 0 1.411h7.502c.383 0 .705-.323.705-.705zm0 3.264a.7.7 0 0 0-.705-.706h-7.502a.7.7 0 1 0 0 1.411h7.502c.383 0 .705-.312.705-.705zm0 3.274a.7.7 0 0 0-.705-.705h-7.502a.7.7 0 1 0 0 1.41h7.502c.383 0 .705-.322.705-.705zm-5.69-22.889a.81.81 0 0 0-.815-.816c-.453 0-.816.363-.816.816a.81.81 0 1 0 1.631 0zm2.458 0c0-.453-.363-.816-.816-.816s-.816.363-.816.816a.81.81 0 0 0 .816.816.82.82 0 0 0 .816-.816zm2.447 0c0-.453-.363-.816-.816-.816s-.816.363-.816.816a.81.81 0 1 0 1.632 0zm2.447 0c0-.453-.363-.816-.816-.816s-.816.363-.816.816a.81.81 0 1 0 1.632 0zm2.457 0c0-.453-.363-.816-.816-.816s-.816.363-.816.816a.81.81 0 1 0 1.632 0zm2.447 0c0-.453-.363-.816-.816-.816a.81.81 0 1 0 0 1.632.81.81 0 0 0 .816-.816zm-12.256 6.538a.81.81 0 0 0-.815-.816c-.453 0-.816.363-.816.816a.81.81 0 1 0 1.631 0zm2.458 0c0-.453-.363-.816-.816-.816s-.816.363-.816.816a.81.81 0 0 0 .816.816.82.82 0 0 0 .816-.816zm2.447 0c0-.453-.363-.816-.816-.816s-.816.363-.816.816a.81.81 0 1 0 1.632 0zm2.447 0c0-.453-.363-.816-.816-.816s-.816.363-.816.816a.81.81 0 1 0 1.632 0zm2.457 0c0-.453-.363-.816-.816-.816s-.816.363-.816.816a.81.81 0 1 0 1.632 0zm2.447 0c0-.453-.363-.816-.816-.816a.81.81 0 1 0 0 1.632.81.81 0 0 0 .816-.816zm-3.877 9.4a.81.81 0 1 0-1.632 0c0 .453.363.816.816.816s.816-.363.816-.816zm2.447 0a.81.81 0 1 0-1.631 0 .81.81 0 0 0 .815.816c.453 0 .816-.363.816-.816zm2.457 0a.81.81 0 1 0-1.631 0 .81.81 0 0 0 .815.816.82.82 0 0 0 .816-.816zm2.447 0a.81.81 0 1 0-1.631 0 .81.81 0 1 0 1.631 0zm2.457 0a.81.81 0 1 0-1.631 0 .81.81 0 0 0 .816.816.82.82 0 0 0 .815-.816zm2.447 0a.81.81 0 1 0-1.631 0c0 .453.363.816.816.816a.81.81 0 0 0 .815-.816zm-12.255 6.739c0-.453-.363-.816-.816-.816s-.816.363-.816.816a.81.81 0 0 0 .816.816c.453.01.816-.362.816-.816zm2.447 0c0-.453-.363-.816-.816-.816a.81.81 0 1 0 0 1.632c.453.01.816-.362.816-.816zm2.457 0a.81.81 0 1 0-1.631 0 .81.81 0 0 0 .815.816c.443.01.816-.362.816-.816zm2.447 0a.81.81 0 1 0-1.631 0 .81.81 0 0 0 .815.816c.454.01.816-.362.816-.816zm2.457 0a.81.81 0 1 0-1.631 0 .81.81 0 0 0 .816.816c.443.01.815-.362.815-.816zm2.447 0a.81.81 0 0 0-.815-.816c-.453 0-.816.363-.816.816a.81.81 0 0 0 .816.816c.453.01.815-.362.815-.816z"/></g><g class="B"><path d="M103.532 87.161a1.36 1.36 0 0 1-1.36 1.36c-.755 0-1.359-.604-1.359-1.36a1.36 1.36 0 0 1 1.359-1.36c.756 0 1.36.604 1.36 1.36zm6.102 0a1.36 1.36 0 0 1-1.359 1.36c-.755 0-1.359-.604-1.359-1.36a1.36 1.36 0 0 1 1.359-1.36c.755 0 1.359.604 1.359 1.36zm6.113 0a1.36 1.36 0 1 1-1.359-1.36c.755 0 1.359.604 1.359 1.36z"/></g><path opacity=".3" d="M326.608 133.342H185.524v81.409h141.084v-81.409z" fill="#000"/><path d="M324.433 131.176H183.349v81.409h141.084v-81.409z" class="C D E F"/><path d="M255.592 177.284l-1.48-.101a10.33 10.33 0 0 0-.141-1.491l1.43-.382c.222-.061.363-.293.302-.514l-.181-.665c-.061-.222-.292-.363-.514-.302l-1.43.383a9.16 9.16 0 0 0-.624-1.36l1.229-.827a.42.42 0 0 0 .11-.584l-.382-.574a.42.42 0 0 0-.584-.111l-1.229.826c-.312-.393-.655-.755-1.027-1.088l.896-1.189a.43.43 0 0 0-.08-.594l-.554-.413a.43.43 0 0 0-.594.081l-.897 1.188a9.32 9.32 0 0 0-1.329-.695l.453-1.41c.071-.222-.05-.464-.272-.534l-.654-.212c-.222-.07-.464.051-.534.272l-.453 1.411c-.433-.101-.866-.171-1.319-.212v-1.481c0-.231-.192-.423-.423-.423h-.695c-.232 0-.423.192-.423.423v1.481a9.12 9.12 0 0 0-1.48.242l-.484-1.4c-.08-.222-.312-.343-.534-.262l-.654.221c-.222.081-.342.313-.262.534l.483 1.401c-.463.201-.896.443-1.319.715l-.916-1.169a.43.43 0 0 0-.594-.07l-.544.423a.43.43 0 0 0-.071.594l.917 1.169c-.363.342-.705.705-1.007 1.108l-1.249-.806c-.191-.131-.453-.07-.584.121l-.373.584c-.131.192-.07.454.121.585l1.239.805c-.232.434-.433.897-.594 1.371l-1.44-.363c-.222-.061-.453.08-.514.312l-.171.675c-.061.222.08.453.312.514l1.44.363c-.08.473-.121.967-.121 1.46v.031l-1.48.131c-.232.02-.403.221-.383.453l.061.685c.02.232.221.403.453.383l1.48-.131a8.81 8.81 0 0 0 .373 1.45l-1.35.605c-.211.091-.312.342-.211.554l.282.635c.091.211.342.312.554.211l1.349-.604c.242.443.524.856.826 1.249l-1.088 1.007c-.171.162-.181.423-.02.595l.473.503c.162.172.423.182.595.021l1.087-1.008a9.47 9.47 0 0 0 1.189.907l-.695 1.309a.43.43 0 0 0 .171.575l.614.322a.43.43 0 0 0 .574-.171l.695-1.31c.453.192.926.353 1.42.474l-.232 1.46c-.04.232.121.444.353.484l.685.111c.231.04.443-.121.483-.353l.232-1.471.664.031a7.49 7.49 0 0 0 .826-.041l.262 1.461c.04.232.262.383.493.343l.685-.121c.232-.041.383-.262.342-.494l-.261-1.461a9.83 9.83 0 0 0 1.409-.503l.715 1.299c.111.202.373.282.574.161l.605-.332c.201-.111.281-.373.161-.574l-.715-1.3a9.49 9.49 0 0 0 1.168-.937l1.097.998c.172.151.444.141.595-.031l.463-.513c.151-.172.141-.444-.03-.595l-1.098-.987c.302-.393.574-.816.806-1.259l1.359.574c.212.091.463-.01.554-.222l.272-.634c.09-.212-.01-.464-.222-.555l-1.359-.574a9.9 9.9 0 0 0 .352-1.46l1.481.1c.231.02.433-.161.453-.393l.05-.685c.01-.211-.161-.413-.393-.433zm-10.634 5.168c-2.84 0-5.136-2.297-5.136-5.138s2.296-5.137 5.136-5.137 5.136 2.296 5.136 5.137-2.296 5.138-5.136 5.138z" class="B"/><path d="M252.138 177.314a7.18 7.18 0 1 1-14.36 0 7.18 7.18 0 1 1 14.36 0z" stroke="#fff" class="C F"/><path d="M268.875 184.75l-.967-.07a6.35 6.35 0 0 0-.09-.978l.936-.251c.151-.041.232-.192.192-.343l-.121-.433c-.041-.151-.192-.232-.343-.191l-.936.251c-.111-.312-.252-.604-.413-.896l.805-.544c.131-.081.162-.262.071-.383l-.252-.373c-.08-.131-.262-.161-.382-.07l-.806.544a6.41 6.41 0 0 0-.675-.716l.584-.775c.091-.121.071-.292-.05-.383l-.363-.272c-.12-.091-.292-.071-.382.05l-.584.776a6.46 6.46 0 0 0-.866-.453l.302-.927c.05-.141-.03-.302-.182-.353l-.433-.141c-.141-.05-.302.03-.352.182l-.302.926c-.282-.07-.574-.11-.866-.141v-.977a.27.27 0 0 0-.272-.272h-.453a.27.27 0 0 0-.272.272v.977c-.332.031-.655.081-.967.161l-.312-.916c-.05-.141-.212-.222-.353-.172l-.433.152c-.141.05-.221.211-.171.352l.312.917a5.58 5.58 0 0 0-.866.473l-.594-.765c-.09-.121-.272-.141-.392-.051l-.353.282c-.121.091-.141.272-.05.393l.594.766a5.72 5.72 0 0 0-.665.725l-.815-.534c-.131-.08-.303-.05-.383.081l-.242.383c-.08.131-.05.302.081.383l.815.524a6.44 6.44 0 0 0-.392.896l-.947-.232c-.151-.04-.302.051-.332.202l-.111.443c-.04.151.05.302.201.333l.947.231a6.09 6.09 0 0 0-.081.957l-.966.101c-.151.01-.262.151-.252.302l.04.454a.28.28 0 0 0 .302.251l.967-.08c.06.322.141.645.242.947l-.886.393c-.141.06-.202.221-.141.362l.181.413c.06.141.221.202.362.141l.887-.392c.161.292.342.564.543.816l-.715.664c-.11.101-.12.283-.01.393l.312.333c.101.111.282.121.393.01l.715-.665a5.43 5.43 0 0 0 .776.594l-.454.857a.28.28 0 0 0 .111.372l.403.212a.28.28 0 0 0 .373-.111l.453-.856c.302.131.614.232.926.312l-.151.957c-.02.151.081.292.232.313l.443.07c.151.02.292-.081.312-.232l.151-.957.443.02c.182 0 .363-.01.544-.03l.171.957c.03.151.171.252.322.222l.444-.081c.151-.03.251-.171.221-.322l-.171-.957c.322-.081.624-.192.926-.333l.474.847c.07.131.241.181.372.11l.393-.221a.28.28 0 0 0 .111-.373l-.474-.846c.272-.181.524-.393.766-.615l.725.655c.111.101.292.091.393-.02l.302-.332c.1-.111.09-.293-.02-.393l-.725-.655c.201-.262.372-.534.523-.826l.896.383c.141.06.303-.01.363-.152l.181-.413c.061-.141-.01-.302-.151-.362l-.896-.383c.101-.312.181-.625.232-.957l.966.07a.27.27 0 0 0 .292-.251l.031-.454c.05-.141-.071-.272-.222-.282zm-6.969 3.385c-1.863 0-3.363-1.511-3.363-3.365 0-1.863 1.51-3.364 3.363-3.364 1.863 0 3.364 1.511 3.364 3.364s-1.501 3.365-3.364 3.365z" class="B"/><g class="C F"><path d="M266.609 184.759c0 2.599-2.104 4.705-4.703 4.705s-4.702-2.106-4.702-4.705 2.104-4.704 4.702-4.704 4.703 2.105 4.703 4.704z" stroke="#fff"/><path d="M324.433 131.176H183.349v5.903h141.084v-5.903z" class="B E"/></g><g class="G"><path d="M188.606 135.034a1.36 1.36 0 0 0 0-2.72 1.36 1.36 0 1 0 0 2.72zm6.112 0a1.36 1.36 0 0 0 0-2.72 1.36 1.36 0 0 0 0 2.72zm6.113 0a1.36 1.36 0 0 0 0-2.72 1.36 1.36 0 1 0 0 2.72z"/></g><g class="C E F"><path d="M312.781 198.522H196.027c-.826 0-1.501-.675-1.501-1.501s.675-1.501 1.501-1.501h116.754c.826 0 1.501.675 1.501 1.501a1.5 1.5 0 0 1-1.501 1.501z" class="D"/><path d="M278.23 195.51h-82.203c-.826 0-1.501.675-1.501 1.501s.675 1.501 1.501 1.501h82.203v-3.002z" class="G"/></g><g class="D"><path opacity=".3" d="M119 279.929H77.289L183.097 71.305h41.711L119 279.929zm29.919 0h-16.314L238.403 71.305h16.324L148.919 279.929z"/></g><g class="C E F H"><path d="M427.31 61.332H80.471c-4.25 0-7.694 3.445-7.694 7.697v250.684c0 4.251 3.444 7.697 7.694 7.697H427.32c4.25 0 7.694-3.446 7.694-7.697V69.029a7.71 7.71 0 0 0-7.704-7.697zm-10.523 204.535H90.994V77.884h325.793v187.983z" class="B"/><path d="M298.955 347.929v-29.97h-90.128v29.97c0 9.782-3.374 19.272-9.577 26.939l-3.948 4.886H312.48l-3.948-4.886c-6.203-7.667-9.577-17.167-9.577-26.939z" fill="#a8a8a8"/></g><path d="M298.955 317.949h-90.128v19.363h90.128v-19.363z" class="B"/><g class="C E F H"><path d="M312.5 379.744H195.312v5.35H312.5v-5.35z" fill="#a8a8a8"/><path d="M426.746 327.409H81.035a8.26 8.26 0 0 1-8.258-8.261v-33.103h362.227v33.103a8.26 8.26 0 0 1-8.258 8.261z" class="D"/></g><path d="M389.124 99.15h14.954l-1.5-14.728h-11.964l-1.49 14.728z" class="B"/><path d="M389.406 101.871h14.39a.29.29 0 0 0 .282-.282v-2.871a.29.29 0 0 0-.282-.282h-14.39a.29.29 0 0 0-.282.282v2.871c0 .161.121.282.282.282z" class="D"/><path d="M389.124 120.224h14.954l-1.5-14.728h-11.964l-1.49 14.728z" class="B"/><path d="M389.577 122.945h14.048a.45.45 0 0 0 .453-.453v-2.529a.45.45 0 0 0-.453-.453h-14.048a.45.45 0 0 0-.453.453v2.529a.45.45 0 0 0 .453.453z" class="D"/><g class="B"><path d="M396.848 120.516h-6.767v1.39h6.767v-1.39z"/><path d="M401.933 112.356c0 2.297-2.306 4.161-5.155 4.161s-5.156-1.864-5.156-4.161 2.306-4.161 5.156-4.161c2.849.01 5.155 1.874 5.155 4.161z" stroke="#595959" stroke-width=".483" class="C"/></g><g class="D"><path d="M404.209 142.177H390.02v-7.989a.77.77 0 0 1 .775-.776h12.649c.423 0 .775.343.775.776v7.989h-.01z"/><path d="M398.016 135.044h-5.559c-.212 0-.383-.171-.383-.383v-2.528c0-.212.171-.383.383-.383h5.559c.211 0 .382.171.382.383v2.528c-.01.222-.181.383-.382.383zm6.193 27.996H390.02v-7.989c0-.423.342-.776.775-.776h12.649c.423 0 .775.343.775.776v7.989h-.01z"/><path d="M398.016 155.908h-5.559c-.212 0-.383-.172-.383-.383v-2.529c0-.211.171-.383.383-.383h5.559c.211 0 .382.172.382.383v2.529c-.01.211-.181.383-.382.383zm6.193 27.995H390.02v-7.989a.77.77 0 0 1 .775-.775h12.649c.423 0 .775.342.775.775v7.989h-.01z"/><path d="M398.016 176.771h-5.559c-.212 0-.383-.171-.383-.383v-2.529c0-.211.171-.382.383-.382h5.559c.211 0 .382.171.382.382v2.529c-.01.212-.181.383-.382.383z"/></g><path d="M416.45 441.225H93.698c-1.631 0-2.95 1.198-2.95 2.679v2.428c0 1.481 1.32 2.68 2.95 2.68H416.45c1.63 0 2.95-1.199 2.95-2.68v-2.428c0-1.481-1.32-2.679-2.95-2.679z" fill="#3c464c"/><path d="M418.79 442.253l-33.842-35.804c-.943-.997-4.004-1.531-6.411-1.531H131.556c-2.407 0-5.468.534-6.411 1.531l-33.842 35.804c-.654.695-.499 1.289-.355 1.581.477.947 2.219 1.491 4.781 1.491h318.626c2.562 0 4.303-.544 4.78-1.491.156-.292.311-.886-.344-1.581z" class="B"/><g stroke-width="1.059" class="C D E H"><path d="M257.686 406.197h-14.619l-.411 4.685h15.119l-.089-4.685zm-35.284 0h-14.631l-1.62 4.685h15.13l1.121-4.685zm52.932 0h-14.631l.2 4.685h15.13l-.699-4.685zm-88.228 0h-14.63l-2.829 4.685h15.13l2.329-4.685zm17.648 0h-14.631l-2.229 4.685h15.129l1.731-4.685zm-53.354 4.685h15.119l2.94-4.685h-14.62l-3.439 4.685zm88.639-4.685h-14.62l-1.021 4.685h15.13l.511-4.685zm52.943 0h-14.631l.799 4.685h15.13l-1.298-4.685zm-141.171 0h-22.263l-4.303 4.685h23.027l3.539-4.685zm214.768 0l3.826 4.685h15.618l-4.348-4.685h-15.096zm-3.017 0h-14.631l3.228 4.685h15.13l-3.727-4.685zm-17.648 0h-14.62l2.607 4.685h15.13l-3.117-4.685zm-35.284 0h-14.631l1.409 4.685h15.119l-1.897-4.685zm17.636 0h-14.62l2.008 4.685h15.13l-2.518-4.685zm-116.369 5.149H196.69l-2.086 5.047h15.752l1.541-5.047zm18.347 0h-15.219l-1.42 5.047h15.751l.888-5.047zm18.335 0h-15.207l-.777 5.047h15.762l.222-5.047zm-73.375 0h-15.208l-3.383 5.047h15.751l2.84-5.047zm-37.592 5.047h15.751l3.505-5.047H141.65l-4.038 5.047zm129.314-5.047h-15.208l-.122 5.047h15.751l-.421-5.047zm-73.375 0h-15.208l-2.739 5.047h15.751l2.196-5.047zm165.097 0h-15.219l3.161 5.047h15.751l-3.693-5.047zm-220.126 0h-13.71l-4.648 5.047h14.198l4.16-5.047zm223.254 0l3.805 5.047h25.556l-4.681-5.047h-24.68zm-21.475 0h-15.207l2.496 5.047h15.75l-3.039-5.047zm-55.028 0h-15.208l.532 5.047h15.752l-1.076-5.047zm18.346 0H288.4l1.198 5.047h15.751l-1.73-5.047zm18.336 0h-15.208l1.841 5.047h15.751l-2.384-5.047zm-25.213 25.144H192.397l-2.651 7.052h108.76l-1.764-7.052zm-108.039 0h-23.282l-3.783 7.052h24.259l2.806-7.052zm130.856 0h-19.123l1.919 7.052h19.932l-2.728-7.052zm-202.19 7.052h18.879l4.825-7.052h-18.124l-5.58 7.052zm44.358-7.052h-16.96l-4.67 7.052h17.692l3.938-7.052zm-42.461 0h-17.592l-6.478 7.052h18.324l5.746-7.052zm223.11 0h-19.124l2.884 7.052h19.933l-3.693-7.052zm49.315 0l5.779 7.052h18.868l-6.533-7.052h-18.114zm-26.51 0h-19.123l3.849 7.052h19.933l-4.659-7.052zm22.817 0h-19.123l4.814 7.052h19.933l-5.624-7.052zm-155.103-7.082h-17.071l-1.586 6.447h17.77l.887-6.447zm41.218 0h-17.071l.078 6.447h17.759l-.766-6.447zm-61.817 0h-17.071l-2.418 6.447h17.759l1.73-6.447zm-41.219 0h-17.071l-4.082 6.447h17.759l3.394-6.447zm-42.594 6.447h17.77l4.215-6.447h-17.071l-4.914 6.447zm63.204-6.447h-17.071l-3.25 6.447h17.759l2.562-6.447zm61.817 0h-17.071l-.754 6.447h17.77l.055-6.447zm-123.634 0h-21.674l-5.935 6.447h22.551l5.058-6.447zm226.67 0h-17.071l3.406 6.447h17.769l-4.104-6.447zm3.527 0l4.249 6.447h44.89l-5.99-6.447h-43.149zm-65.344 0h-17.071l.909 6.447h17.759l-1.597-6.447zm20.598 0H298.25l1.753 6.447h17.759l-2.441-6.447zm20.61 0H318.86l2.573 6.447h17.77l-3.272-6.447zm-92.21-6.517h-16.428l-1.076 5.923h17.071l.433-5.923zm19.822 0h-16.427l-.311 5.923h17.06l-.322-5.923zm-39.633 0h-16.428l-1.841 5.923h17.06l1.209-5.923zm-19.821 0h-16.428l-2.607 5.923h17.06l1.975-5.923zm-19.811 0H167.85l-3.383 5.923h17.071l2.74-5.923zm-40.387 5.923h17.059l3.506-5.923h-16.428l-4.137 5.923zm139.463-5.923h-16.428l.466 5.923h17.06l-1.098-5.923zm-138.709 0h-30.459l-5.447 5.923h31.624l4.282-5.923zm237.796 0h-16.428l4.293 5.923h17.06l-4.925-5.923zm-79.265 0h-16.428l1.22 5.923h17.071l-1.863-5.923zm59.443 0h-16.428l3.528 5.923h17.071l-4.171-5.923zm-39.633 0h-16.427l1.996 5.923h17.06l-2.629-5.923zm19.822 0h-16.427l2.762 5.923h17.06l-3.395-5.923zm-121.748-.534h16.05l.632-5.461H222.28l-1.22 5.461zm-19.412 0h16.039l1.331-5.461h-15.462l-1.908 5.461zm38.834 0h16.039l-.055-5.461h-15.463l-.521 5.461zm-97.09 0h16.039l3.427-5.461h-15.473l-3.993 5.461zm19.422 0h16.039l2.729-5.461h-15.474l-3.294 5.461zm97.091 0h16.039l-.754-5.461h-15.463l.178 5.461zm-77.679 0h16.039l2.041-5.461h-15.474l-2.606 5.461zm209.377-5.461h-16.284l4.459 5.461h3.971c.644 0 1.309.171 1.487.372l5.235 6.156h12.002l-10.87-11.989zm-54.03 5.461h16.039l-3.527-5.461h-15.463l2.951 5.461zm19.422 0h19.412l-4.337-5.461h-18.724l3.649 5.461zm-242.31 0h25.323l4.127-5.461h-24.426l-5.024 5.461zm164.631 0h16.04l-1.442-5.461h-15.463l.865 5.461zm38.834 0h16.05l-2.839-5.461h-15.463l2.252 5.461zm-19.411 0h16.039l-2.141-5.461h-15.462l1.564 5.461z"/></g><g fill="#152c4a"><path d="M202.132 151.839q0 1.332-.41 2.328-.399.984-1.187 1.536-.788.552-1.953.552-1.197 0-1.996-.552-.788-.552-1.176-1.548-.388-.996-.388-2.328 0-1.32.388-2.304.388-.984 1.176-1.536.798-.552 2.007-.552 1.154 0 1.942.552.788.54 1.187 1.536.41.984.41 2.316zm-6.085 0q0 1.62.615 2.556.615.924 1.92.924 1.316 0 1.92-.924.604-.936.604-2.556 0-1.62-.604-2.532-.604-.924-1.91-.924-1.305 0-1.931.924-.615.912-.615 2.532zm11.651-1.248h-1.888v5.544h-.939v-5.544h-1.866v-.888h4.693zm6.031-.888v6.432h-.949v-5.532h-2.988v5.532h-.949v-6.432zm4.596-.12q1.068 0 1.715.828.658.828.658 2.496 0 1.644-.658 2.496-.647.852-1.726.852-.669 0-1.111-.276-.432-.288-.68-.66h-.065q.022.204.043.516.022.312.022.54v2.64h-.949v-9.312h.777l.129.876h.043q.259-.42.68-.708.421-.288 1.122-.288zm-.173.888q-.885 0-1.251.552-.356.552-.378 1.68v.204q0 1.188.345 1.836.356.636 1.305.636.529 0 .863-.324.345-.324.507-.876.173-.564.173-1.284 0-1.104-.388-1.764-.378-.66-1.176-.66z"/><use xlink:href="#H"/><path d="M232.91 151.323q0 .6-.324.936-.324.336-.831.456v.048q.539.084.939.432.399.336.399 1.056 0 .816-.55 1.356-.539.528-1.791.528h-2.492v-6.432h2.481q.615 0 1.1.156.496.144.777.504.291.348.291.96zm-.96.132q0-.456-.302-.66-.291-.216-.96-.216h-1.478v1.764h1.305q1.435 0 1.435-.888zm.162 2.796q0-.552-.378-.792-.378-.24-1.111-.24h-1.413v2.064h1.435q.712 0 1.09-.228.378-.24.378-.804z"/><use xlink:href="#I"/><path d="M242.372 149.595q1.057 0 1.564.516.507.516.507 1.644v4.38h-.69l-.183-.912h-.043q-.378.528-.798.78-.41.252-1.144.252-.788 0-1.305-.456-.518-.468-.518-1.452 0-.96.68-1.476.68-.528 2.093-.576l.982-.036v-.384q0-.804-.313-1.116-.313-.312-.885-.312-.453 0-.863.156-.41.144-.766.336l-.291-.792q.378-.228.895-.384.518-.168 1.079-.168zm.28 3.432q-1.079.048-1.5.384-.41.336-.41.948 0 .54.291.792.302.252.766.252.734 0 1.219-.444.485-.456.485-1.392v-.576zm10.681-3.324v5.544h.841v3.12h-.917v-2.232h-4.024v2.232h-.906v-3.12h.464q.744-1.14 1.111-2.592.378-1.464.388-2.952zm-2.201.828q-.043.816-.227 1.692-.183.864-.475 1.656-.28.792-.658 1.368h2.643v-4.716zm9.202 2.376q0 1.596-.734 2.472-.723.876-1.963.876-.766 0-1.37-.384-.593-.396-.939-1.14-.345-.756-.345-1.824 0-1.596.723-2.46.723-.864 1.963-.864.788 0 1.381.396.604.384.939 1.128.345.732.345 1.8zm-4.369 0q0 1.14.399 1.812.41.66 1.295.66.874 0 1.284-.66.41-.672.41-1.812 0-1.14-.41-1.788-.41-.648-1.295-.648-.885 0-1.284.648-.399.648-.399 1.788zm9.289-3.204h1.036l-2.471 3.096 2.675 3.336h-1.1l-2.611-3.264v3.264h-.949v-6.432h.949v3.12zm1.381 0h1.014l1.251 3.66q.162.48.291.924.129.432.194.828h.043q.065-.3.205-.78.14-.492.291-.984l1.176-3.648h1.025l-2.492 7.32q-.302.912-.788 1.452-.475.54-1.316.54-.259 0-.453-.036-.194-.024-.334-.06v-.84q.119.024.28.048.173.024.356.024.496 0 .798-.312.313-.312.485-.828l.302-.852zm12.611 0v6.432h-.852v-4.104q0-.252.011-.528.022-.276.043-.54h-.032l-1.888 5.172h-.798l-1.834-5.172h-.032q.032.54.032 1.104v4.068h-.852v-6.432h1.262l1.823 5.172 1.856-5.172zm4.078-.12q.744 0 1.273.36.539.36.82 1.02.291.648.291 1.524v.636h-3.959q.022 1.092.496 1.668.485.564 1.349.564.55 0 .971-.108.432-.12.885-.336v.924q-.442.216-.874.312-.432.108-1.025.108-.82 0-1.456-.372-.626-.372-.982-1.104-.345-.744-.345-1.812 0-1.056.313-1.812.324-.756.895-1.164.583-.408 1.349-.408zm-.011.864q-.68 0-1.079.492-.388.48-.464 1.344h2.945q-.011-.816-.345-1.32-.334-.516-1.057-.516zm4.812-.744v2.676h3.139v-2.676h.949v6.432h-.949v-2.868h-3.139v2.868h-.949v-6.432zm9.914.888h-1.888v5.544h-.939v-5.544h-1.866v-.888h4.693zm3.334-.996q1.057 0 1.564.516.507.516.507 1.644v4.38h-.69l-.183-.912h-.043q-.378.528-.798.78-.41.252-1.144.252-.788 0-1.305-.456-.518-.468-.518-1.452 0-.96.68-1.476.68-.528 2.093-.576l.982-.036v-.384q0-.804-.313-1.116-.313-.312-.885-.312-.453 0-.863.156-.41.144-.766.336l-.291-.792q.378-.228.895-.384.518-.168 1.079-.168zm.28 3.432q-1.079.048-1.5.384-.41.336-.41.948 0 .54.291.792.302.252.766.252.734 0 1.219-.444.485-.456.485-1.392v-.576z"/><use xlink:href="#J"/><path d="M310.791 155.487q0-.444.194-.624.194-.18.464-.18.28 0 .475.18.205.18.205.624 0 .432-.205.624-.194.192-.475.192-.27 0-.464-.192-.194-.192-.194-.624zm2.891 0q0-.444.194-.624.194-.18.464-.18.28 0 .475.18.205.18.205.624 0 .432-.205.624-.194.192-.475.192-.27 0-.464-.192-.194-.192-.194-.624z"/></g></g><defs><clipPath id="A"><path d="M0 0h466v454H0z" class="D"/></clipPath><path id="B" d="M445.306 68.182C421.107 25.297 370.665 3.305 320.264.374 264.384-2.88 213.459 14.79 176.239 53.676c-14.753 15.403-28.076 32.046-44.44 46.069-28.136 24.117-63.452 43.892-88.014 71.163-31.067 34.494-35.336 88.713.201 121.796 12.326 11.475 27.592 19.866 43.332 26.858 38.72 17.186 81.035 26.495 123.592 31.582 47.975 5.742 98.004 6.055 143.249-9.822 99.836-35.038 126.482-149.742 104.761-238.293-2.941-12.049-7.432-23.896-13.615-34.847z"/><path id="C" d="M47.622 380.751h14.551a17.49 17.49 0 0 0 17.411-15.917l4.381-48.598H25.83l4.38 48.598a17.49 17.49 0 0 0 17.412 15.917z"/><path id="D" d="M160.288 39.028H78.86c-1.662 0-3.011-1.35-3.011-3.012s1.349-3.012 3.011-3.012h81.428c1.662 0 3.011 1.35 3.011 3.012.01 1.662-1.349 3.012-3.011 3.012z"/><path id="E" d="M282.711 123.591h-14.189v-7.989a.77.77 0 0 1 .776-.776h12.648c.423 0 .776.343.776.776v7.989h-.011z"/><path id="F" d="M313.084 123.591h-14.189v-7.989a.77.77 0 0 1 .775-.776h12.648a.77.77 0 0 1 .776.776v7.989h-.01z"/><path id="G" d="M274.585 197.02c0 .735-.604 1.339-1.339 1.339s-1.34-.604-1.34-1.339.604-1.34 1.34-1.34a1.34 1.34 0 0 1 1.339 1.34z"/><path id="H" d="M224.399 149.595q1.057 0 1.564.516.507.516.507 1.644v4.38h-.69l-.183-.912h-.043q-.378.528-.798.78-.41.252-1.144.252-.788 0-1.305-.456-.518-.468-.518-1.452 0-.96.68-1.476.68-.528 2.093-.576l.982-.036v-.384q0-.804-.313-1.116-.313-.312-.885-.312-.453 0-.863.156-.41.144-.766.336l-.291-.792q.378-.228.895-.384.518-.168 1.079-.168zm.28 3.432q-1.079.048-1.5.384-.41.336-.41.948 0 .54.291.792.302.252.766.252.734 0 1.219-.444.485-.456.485-1.392v-.576z"/><path id="I" d="M237.895 149.703h1.036l-2.471 3.096 2.675 3.336h-1.1l-2.611-3.264v3.264h-.949v-6.432h.949v3.12z"/><path id="J" d="M307.9 155.487q0-.444.194-.624.194-.18.464-.18.28 0 .475.18.205.18.205.624 0 .432-.205.624-.194.192-.475.192-.27 0-.464-.192-.194-.192-.194-.624z"/></defs></svg>