<svg width="120" height="120" viewBox="0 0 120 120" fill="none" xmlns="http://www.w3.org/2000/svg">
<rect x="24" width="72" height="120" rx="4" fill="white"/>
<path d="M77.3554 0H25.8064C11.554 0 0 11.5539 0 25.8065V94.1935C0 108.446 11.554 120 25.8064 120H29.7521V100.083C26.9377 99.6109 24.7934 97.1633 24.7934 94.2149V25.7851C24.7934 22.4988 27.4575 19.8347 30.7438 19.8347H77.3554V0Z" fill="#1C89E4"/>
<path d="M28.7603 25.7851C28.7603 24.6897 29.6483 23.8016 30.7438 23.8016H81.3223C82.4178 23.8016 83.3058 24.6897 83.3058 25.7851V45.3232C83.3058 46.1566 82.7847 46.9012 82.0018 47.1867L76.8595 49.0618V94.2149C76.8595 95.3103 75.9715 96.1983 74.876 96.1983H30.7438C29.6483 96.1983 28.7603 95.3103 28.7603 94.2149V25.7851Z" fill="#77B8EF"/>
<path d="M87.2727 45.3232V33.004H89.2562C90.3517 33.004 91.2396 33.8921 91.2396 34.9875V85.1346C91.2396 86.2301 90.3517 87.1181 89.2562 87.1181H80.8264V51.8377L83.3607 50.9136C85.7097 50.0571 87.2727 47.8235 87.2727 45.3232Z" fill="#A4D0F4"/>
<path d="M33.719 120V100.165H74.876C78.1624 100.165 80.8264 97.5012 80.8264 94.2149V91.085H89.2562C92.5425 91.085 95.2066 88.4209 95.2066 85.1346V34.9875C95.2066 31.7012 92.5425 29.0371 89.2562 29.0371H87.2727V25.7851C87.2727 22.4988 84.6086 19.8347 81.3223 19.8347V0H94.1936C108.446 0 120 11.5539 120 25.8065V94.1935C120 108.446 108.446 120 94.1936 120H33.719Z" fill="#6CBCFF"/>
</svg>
