<?xml version="1.0" encoding="UTF-8" standalone="no"?>
<svg
   width="222"
   height="147"
   viewBox="0 0 222 147"
   fill="none"
   version="1.1"
   id="svg9799"
   sodipodi:docname="pic3.svg"
   inkscape:version="1.2.1 (9c6d41e410, 2022-07-14)"
   xmlns:inkscape="http://www.inkscape.org/namespaces/inkscape"
   xmlns:sodipodi="http://sodipodi.sourceforge.net/DTD/sodipodi-0.dtd"
   xmlns="http://www.w3.org/2000/svg"
   xmlns:svg="http://www.w3.org/2000/svg">
  <defs
     id="defs9803" />
  <sodipodi:namedview
     id="namedview9801"
     pagecolor="#ffffff"
     bordercolor="#000000"
     borderopacity="0.25"
     inkscape:showpageshadow="2"
     inkscape:pageopacity="0.0"
     inkscape:pagecheckerboard="0"
     inkscape:deskcolor="#d1d1d1"
     showgrid="false"
     inkscape:zoom="0.99451923"
     inkscape:cx="321.26076"
     inkscape:cy="36.198395"
     inkscape:window-width="1920"
     inkscape:window-height="1007"
     inkscape:window-x="0"
     inkscape:window-y="0"
     inkscape:window-maximized="1"
     inkscape:current-layer="g8689" />
  <path
     d="M12.6529 146.224L3.36506 93.4436C1.17996 81.0263 3.0532 68.2354 8.70723 56.9661C20.2787 33.9024 45.5611 21.1068 70.9984 25.44L117.741 33.4025C127.077 34.9929 136.672 33.0866 144.691 28.0479C165.372 15.0535 192.77 24.3512 201.271 47.2486L212.467 77.405C218.555 93.8037 217.666 111.98 210.006 127.706L200.986 146.224H12.6529Z"
     fill="#F2F2F2"
     id="path9529" />
  <g
     id="g8689"
     transform="matrix(0.25007269,0,0,0.25007269,41.999791,2.8456004)">
    <circle
       style="fill:#ff7f4f"
       cx="256"
       cy="256"
       r="256"
       id="circle8474" />
    <path
       style="fill:#dd562c"
       d="m 512,256 c 0,-10.23 -0.619,-20.313 -1.786,-30.23 L 369.778,85.333 142.222,398.222 256,512 v 0 c 141.384,0 256,-114.616 256,-256 z"
       id="path8476" />
    <rect
       x="142.222"
       y="85.333"
       style="fill:#ffedb5"
       width="227.556"
       height="312.88901"
       id="rect8478" />
    <rect
       x="255.431"
       y="85.333"
       style="fill:#fee187"
       width="114.347"
       height="312.88901"
       id="rect8480" />
    <g
       id="g8498">
	<rect
   x="170.66701"
   y="139.636"
   style="fill:#263a7a"
   width="170.66701"
   height="5.1719999"
   id="rect8482" />

	<rect
   x="170.66701"
   y="168.08099"
   style="fill:#263a7a"
   width="170.66701"
   height="5.1719999"
   id="rect8484" />

	<rect
   x="170.66701"
   y="196.52499"
   style="fill:#263a7a"
   width="170.66701"
   height="5.1719999"
   id="rect8486" />

	<rect
   x="170.66701"
   y="224.97"
   style="fill:#263a7a"
   width="170.66701"
   height="5.1719999"
   id="rect8488" />

	<rect
   x="170.66701"
   y="253.414"
   style="fill:#263a7a"
   width="170.66701"
   height="5.1719999"
   id="rect8490" />

	<rect
   x="170.66701"
   y="281.85901"
   style="fill:#263a7a"
   width="170.66701"
   height="5.1719999"
   id="rect8492" />

	<rect
   x="170.66701"
   y="310.30301"
   style="fill:#263a7a"
   width="56.889"
   height="5.1719999"
   id="rect8494" />

	<path
   style="fill:#263a7a"
   d="m 358.097,363.656 -34.673,-17.315 90.605,-181.448 c 4.467,-8.944 15.336,-12.574 24.281,-8.108 l 2.286,1.141 c 8.944,4.467 12.574,15.338 8.108,24.281 z"
   id="path8496" />

</g>
    <path
       style="fill:#121149"
       d="m 440.592,157.929 -1.339,-0.669 -99.076,197.449 17.92,8.949 90.605,-181.448 c 4.465,-8.945 0.834,-19.816 -8.11,-24.281 z"
       id="path8500" />
    <polygon
       style="fill:#ffc61b"
       points="358.097,363.656 329.331,377.885 323.422,346.343 "
       id="polygon8502" />
    <polygon
       style="fill:#d48b07"
       points="329.331,377.885 358.097,363.656 340.177,354.709 329.118,376.746 "
       id="polygon8504" />
    <g
       id="g8506">
</g>
    <g
       id="g8508">
</g>
    <g
       id="g8510">
</g>
    <g
       id="g8512">
</g>
    <g
       id="g8514">
</g>
    <g
       id="g8516">
</g>
    <g
       id="g8518">
</g>
    <g
       id="g8520">
</g>
    <g
       id="g8522">
</g>
    <g
       id="g8524">
</g>
    <g
       id="g8526">
</g>
    <g
       id="g8528">
</g>
    <g
       id="g8530">
</g>
    <g
       id="g8532">
</g>
    <g
       id="g8534">
</g>
  </g>
</svg>
